<svg xmlns="http://www.w3.org/2000/svg" xmlns:xlink="http://www.w3.org/1999/xlink" contentStyleType="text/css" height="619px" preserveAspectRatio="none" style="width:256px;height:619px;background:#FFFFFF;" version="1.1" viewBox="0 0 256 619" width="256px" zoomAndPan="magnify"><defs/><g><!--cluster 2567a5ec9705eb7ac2c984033e06189d--><g id="cluster_2567a5ec9705eb7ac2c984033e06189d"><polygon fill="none" points="16,16,26,6,188,6,188,501.48,178,511.48,16,511.48,16,16" style="stroke:#181818;stroke-width:1.0;"/><line style="stroke:#181818;stroke-width:1.0;" x1="178" x2="188" y1="16" y2="6"/><line style="stroke:#181818;stroke-width:1.0;" x1="16" x2="178" y1="16" y2="16"/><line style="stroke:#181818;stroke-width:1.0;" x1="178" x2="178" y1="16" y2="511.48"/><text fill="#000000" font-family="sans-serif" font-size="14" font-weight="bold" lengthAdjust="spacing" textLength="35" x="80.5" y="31.9951">Web</text></g><!--entity 04a565d19766ebe0348853b17c395bd1--><g id="elem_04a565d19766ebe0348853b17c395bd1"><rect fill="#F1F1F1" height="95.1875" rx="2.5" ry="2.5" style="stroke:#181818;stroke-width:0.5;" width="139" x="32.5" y="46"/><rect fill="#F1F1F1" height="10" style="stroke:#181818;stroke-width:0.5;" width="15" x="151.5" y="51"/><rect fill="#F1F1F1" height="2" style="stroke:#181818;stroke-width:0.5;" width="4" x="149.5" y="53"/><rect fill="#F1F1F1" height="2" style="stroke:#181818;stroke-width:0.5;" width="4" x="149.5" y="57"/><text fill="#000000" font-family="sans-serif" font-size="14" font-weight="bold" lengthAdjust="spacing" textLength="34" x="47.5" y="78.9951">web</text><text fill="#000000" font-family="sans-serif" font-size="14" lengthAdjust="spacing" textLength="4" x="47.5" y="95.292">&#160;</text><text fill="#000000" font-family="sans-serif" font-size="14" lengthAdjust="spacing" textLength="99" x="47.5" y="111.5889">restart: always</text><text fill="#000000" font-family="sans-serif" font-size="14" lengthAdjust="spacing" textLength="4" x="47.5" y="127.8857">&#160;</text></g><!--entity fd433df176955d196b161b0a41a19970--><g id="elem_fd433df176955d196b161b0a41a19970"><ellipse cx="145" cy="231.19" fill="#F1F1F1" rx="8" ry="8" style="stroke:#181818;stroke-width:0.5;"/><text fill="#000000" font-family="sans-serif" font-size="14" lengthAdjust="spacing" textLength="36" x="127" y="261.1851">8000</text></g><!--entity 4ae8434c535c76df893919c2b9c9c766--><g id="elem_4ae8434c535c76df893919c2b9c9c766"><rect fill="#F1F1F1" height="39.2969" rx="2.5" ry="2.5" style="stroke:#181818;stroke-width:0.5;" width="70" x="47" y="456.19"/><polygon fill="#F1F1F1" points="100,461.19,100,475.19,112,475.19,112,467.19,106,461.19,100,461.19" style="stroke:#181818;stroke-width:0.5;"/><line style="stroke:#181818;stroke-width:0.5;" x1="106" x2="106" y1="461.19" y2="467.19"/><line style="stroke:#181818;stroke-width:0.5;" x1="112" x2="106" y1="467.19" y2="467.19"/><text fill="#000000" font-family="sans-serif" font-size="14" lengthAdjust="spacing" textLength="40" x="57" y="482.1851">/code</text></g><!--entity 06ae0a21a7798f680dc4649e8cdd5faa--><g id="elem_06ae0a21a7798f680dc4649e8cdd5faa"><ellipse cx="231" cy="366.19" fill="#F1F1F1" rx="8" ry="8" style="stroke:#181818;stroke-width:0.5;"/><text fill="#000000" font-family="sans-serif" font-size="14" lengthAdjust="spacing" textLength="36" x="213" y="396.1851">6969</text></g><!--entity 58b9e70b65a77700ba66e9c64d6b9f89--><g id="elem_58b9e70b65a77700ba66e9c64d6b9f89"><rect fill="#F1F1F1" height="39.2969" rx="2.5" ry="2.5" style="stroke:#181818;stroke-width:0.5;" width="34" x="65" y="574.48"/><polygon fill="#F1F1F1" points="82,579.48,82,593.48,94,593.48,94,585.48,88,579.48,82,579.48" style="stroke:#181818;stroke-width:0.5;"/><line style="stroke:#181818;stroke-width:0.5;" x1="88" x2="88" y1="579.48" y2="585.48"/><line style="stroke:#181818;stroke-width:0.5;" x1="94" x2="88" y1="585.48" y2="585.48"/><text fill="#000000" font-family="sans-serif" font-size="14" lengthAdjust="spacing" textLength="4" x="75" y="600.4751">.</text></g><!--link 04a565d19766ebe0348853b17c395bd1 to fd433df176955d196b161b0a41a19970--><g id="link_04a565d19766ebe0348853b17c395bd1_fd433df176955d196b161b0a41a19970"><path codeLine="14" d="M116.92,141.64 C126.33,171.31 137.6,206.86 142.51,222.34 " fill="none" id="04a565d19766ebe0348853b17c395bd1-fd433df176955d196b161b0a41a19970" style="stroke:#181818;stroke-width:1.0;"/></g><!--link fd433df176955d196b161b0a41a19970 to 06ae0a21a7798f680dc4649e8cdd5faa--><g id="link_fd433df176955d196b161b0a41a19970_06ae0a21a7798f680dc4649e8cdd5faa"><path codeLine="15" d="M150.12,240.11 C165.45,263.82 210.86,334.04 226.01,357.47 " fill="none" id="fd433df176955d196b161b0a41a19970-06ae0a21a7798f680dc4649e8cdd5faa" style="stroke:#181818;stroke-width:1.0;"/></g><!--link 4ae8434c535c76df893919c2b9c9c766 to 58b9e70b65a77700ba66e9c64d6b9f89--><g id="link_4ae8434c535c76df893919c2b9c9c766_58b9e70b65a77700ba66e9c64d6b9f89"><path codeLine="16" d="M82,495.78 C82,517.4 82,552.57 82,574.2 " fill="none" id="4ae8434c535c76df893919c2b9c9c766-58b9e70b65a77700ba66e9c64d6b9f89" style="stroke:#181818;stroke-width:1.0;"/><text fill="#000000" font-family="sans-serif" font-size="13" lengthAdjust="spacing" textLength="14" x="83" y="540.5469">rw</text></g><!--link 04a565d19766ebe0348853b17c395bd1 to 4ae8434c535c76df893919c2b9c9c766--><g id="link_04a565d19766ebe0348853b17c395bd1_4ae8434c535c76df893919c2b9c9c766"><path codeLine="17" d="M99.53,141.6 C95.11,225.65 86.3458,392.2783 83.3158,449.7583 " fill="none" id="04a565d19766ebe0348853b17c395bd1-to-4ae8434c535c76df893919c2b9c9c766" style="stroke:#181818;stroke-width:1.0;stroke-dasharray:7.0,7.0;"/><polygon fill="#181818" points="83,455.75,87.4682,446.973,83.2632,450.7569,79.4793,446.5519,83,455.75" style="stroke:#181818;stroke-width:1.0;"/><text fill="#000000" font-family="sans-serif" font-size="13" lengthAdjust="spacing" textLength="23" x="92" y="303.2569">use</text></g><!--SRC=[XL6zJiGm3Dxp554dg7J5QH8dle7NO40CJkAYIdSjkXOLX7XtUftOibhVl_bocRVh-3LExsgQY-ZcHLAZUT6zny1UCWNmaWBdFbDqOAq0caX5_oYTv-l7FCcqQd3iqHT30L6IW7KnUfjCo9PyAaQ_ghRT9BMjKZTPLhwjPysNZRyNfTxKmwDk8W0SpaDnrfR112H_byHaq2HWPzZG7aVjv77WlEhcAU-P3v9ZYSwwxAtF0SiGoPAXt2VAj1zG_HucI4W77f05k3SS0iK18vJiq974N8eVcF-PT0V1nqGI8A7VAG4WyTwKChg2YNOxLPtWL4xrRZN0eL8DNrlZKAarqcVTtBQcNgphIjSzLrzmr_jSfFa3]--></g></svg>