<svg xmlns="http://www.w3.org/2000/svg" xmlns:xlink="http://www.w3.org/1999/xlink" contentStyleType="text/css" height="574px" preserveAspectRatio="none" style="width:1587px;height:574px;background:#FFFFFF;" version="1.1" viewBox="0 0 1587 574" width="1587px" zoomAndPan="magnify"><defs/><g><!--cluster 876b9adc3f33190a500315353983f0cf--><g id="cluster_876b9adc3f33190a500315353983f0cf"><path d="M8.5,159.89 L43.5,159.89 A3.75,3.75 0 0 1 46,162.39 L53,182.1869 L462.5,182.1869 A2.5,2.5 0 0 1 465,184.6869 L465,565.06 A2.5,2.5 0 0 1 462.5,567.56 L8.5,567.56 A2.5,2.5 0 0 1 6,565.06 L6,162.39 A2.5,2.5 0 0 1 8.5,159.89 " fill="none" style="stroke:#000000;stroke-width:1.5;"/><line style="stroke:#000000;stroke-width:1.5;" x1="6" x2="53" y1="182.1869" y2="182.1869"/><text fill="#000000" font-family="sans-serif" font-size="14" font-weight="bold" lengthAdjust="spacing" textLength="34" x="10" y="174.8851">app/</text></g><!--cluster 408ba74e29b3eb7a07f6d44e8817fc6f--><g id="cluster_408ba74e29b3eb7a07f6d44e8817fc6f"><path d="M357.5,6 L403.5,6 A3.75,3.75 0 0 1 406,8.5 L413,28.2969 L454.5,28.2969 A2.5,2.5 0 0 1 457,30.7969 L457,133.39 A2.5,2.5 0 0 1 454.5,135.89 L357.5,135.89 A2.5,2.5 0 0 1 355,133.39 L355,8.5 A2.5,2.5 0 0 1 357.5,6 " fill="none" style="stroke:#000000;stroke-width:1.5;"/><line style="stroke:#000000;stroke-width:1.5;" x1="355" x2="413" y1="28.2969" y2="28.2969"/><text fill="#000000" font-family="sans-serif" font-size="14" font-weight="bold" lengthAdjust="spacing" textLength="45" x="359" y="20.9951">rems/</text></g><!--cluster a8b2b75b7459b2777a19a2e710ecd3f1--><g id="cluster_a8b2b75b7459b2777a19a2e710ecd3f1"><path d="M1131.5,159.89 L1234.5,159.89 A3.75,3.75 0 0 1 1237,162.39 L1244,182.1869 L1577.5,182.1869 A2.5,2.5 0 0 1 1580,184.6869 L1580,426.17 A2.5,2.5 0 0 1 1577.5,428.67 L1131.5,428.67 A2.5,2.5 0 0 1 1129,426.17 L1129,162.39 A2.5,2.5 0 0 1 1131.5,159.89 " fill="none" style="stroke:#000000;stroke-width:1.5;"/><line style="stroke:#000000;stroke-width:1.5;" x1="1129" x2="1244" y1="182.1869" y2="182.1869"/><text fill="#000000" font-family="sans-serif" font-size="14" font-weight="bold" lengthAdjust="spacing" textLength="102" x="1133" y="174.8851">admin_panel/</text></g><!--cluster d24e67fa0636ae35c465ccc9d4c64678--><g id="cluster_d24e67fa0636ae35c465ccc9d4c64678"><path d="M491.5,159.89 L560.5,159.89 A3.75,3.75 0 0 1 563,162.39 L570,182.1869 L1102.5,182.1869 A2.5,2.5 0 0 1 1105,184.6869 L1105,426.17 A2.5,2.5 0 0 1 1102.5,428.67 L491.5,428.67 A2.5,2.5 0 0 1 489,426.17 L489,162.39 A2.5,2.5 0 0 1 491.5,159.89 " fill="none" style="stroke:#000000;stroke-width:1.5;"/><line style="stroke:#000000;stroke-width:1.5;" x1="489" x2="570" y1="182.1869" y2="182.1869"/><text fill="#000000" font-family="sans-serif" font-size="14" font-weight="bold" lengthAdjust="spacing" textLength="68" x="493" y="174.8851">account/</text></g><!--entity 8e330236560fe16f3f4f23dc0d65552c--><g id="elem_8e330236560fe16f3f4f23dc0d65552c"><rect fill="#F1F1F1" height="78.8906" rx="2.5" ry="2.5" style="stroke:#181818;stroke-width:0.5;" width="70" x="22" y="194.89"/><rect fill="#F1F1F1" height="10" style="stroke:#181818;stroke-width:0.5;" width="15" x="72" y="199.89"/><rect fill="#F1F1F1" height="2" style="stroke:#181818;stroke-width:0.5;" width="4" x="70" y="201.89"/><rect fill="#F1F1F1" height="2" style="stroke:#181818;stroke-width:0.5;" width="4" x="70" y="205.89"/><text fill="#000000" font-family="sans-serif" font-size="14" font-weight="bold" lengthAdjust="spacing" textLength="30" x="37" y="227.8851">urls</text><text fill="#000000" font-family="sans-serif" font-size="14" lengthAdjust="spacing" textLength="4" x="37" y="244.182">&#160;</text><text fill="#000000" font-family="sans-serif" font-size="14" lengthAdjust="spacing" textLength="4" x="37" y="260.4789">&#160;</text></g><!--entity c70a96ecb540ee01b91dd60f493aa35d--><g id="elem_c70a96ecb540ee01b91dd60f493aa35d"><rect fill="#F1F1F1" height="78.8906" rx="2.5" ry="2.5" style="stroke:#181818;stroke-width:0.5;" width="117" x="331.5" y="472.67"/><rect fill="#F1F1F1" height="10" style="stroke:#181818;stroke-width:0.5;" width="15" x="428.5" y="477.67"/><rect fill="#F1F1F1" height="2" style="stroke:#181818;stroke-width:0.5;" width="4" x="426.5" y="479.67"/><rect fill="#F1F1F1" height="2" style="stroke:#181818;stroke-width:0.5;" width="4" x="426.5" y="483.67"/><text fill="#000000" font-family="sans-serif" font-size="14" font-weight="bold" lengthAdjust="spacing" textLength="77" x="346.5" y="505.6651">validators</text><text fill="#000000" font-family="sans-serif" font-size="14" lengthAdjust="spacing" textLength="4" x="346.5" y="521.962">&#160;</text><text fill="#000000" font-family="sans-serif" font-size="14" lengthAdjust="spacing" textLength="4" x="346.5" y="538.2589">&#160;</text></g><!--entity 276e80bcb24b0503af29b6d9b82677ff--><g id="elem_276e80bcb24b0503af29b6d9b82677ff"><rect fill="#F1F1F1" height="78.8906" rx="2.5" ry="2.5" style="stroke:#181818;stroke-width:0.5;" width="86" x="363" y="194.89"/><rect fill="#F1F1F1" height="10" style="stroke:#181818;stroke-width:0.5;" width="15" x="429" y="199.89"/><rect fill="#F1F1F1" height="2" style="stroke:#181818;stroke-width:0.5;" width="4" x="427" y="201.89"/><rect fill="#F1F1F1" height="2" style="stroke:#181818;stroke-width:0.5;" width="4" x="427" y="205.89"/><text fill="#000000" font-family="sans-serif" font-size="14" font-weight="bold" lengthAdjust="spacing" textLength="46" x="378" y="227.8851">views</text><text fill="#000000" font-family="sans-serif" font-size="14" lengthAdjust="spacing" textLength="4" x="378" y="244.182">&#160;</text><text fill="#000000" font-family="sans-serif" font-size="14" lengthAdjust="spacing" textLength="4" x="378" y="260.4789">&#160;</text></g><!--entity 338f69994713d05c7e6a1f77a66b3cbf--><g id="elem_338f69994713d05c7e6a1f77a66b3cbf"><rect fill="#F1F1F1" height="78.8906" rx="2.5" ry="2.5" style="stroke:#181818;stroke-width:0.5;" width="80" x="127" y="194.89"/><rect fill="#F1F1F1" height="10" style="stroke:#181818;stroke-width:0.5;" width="15" x="187" y="199.89"/><rect fill="#F1F1F1" height="2" style="stroke:#181818;stroke-width:0.5;" width="4" x="185" y="201.89"/><rect fill="#F1F1F1" height="2" style="stroke:#181818;stroke-width:0.5;" width="4" x="185" y="205.89"/><text fill="#000000" font-family="sans-serif" font-size="14" font-weight="bold" lengthAdjust="spacing" textLength="40" x="142" y="227.8851">tests</text><text fill="#000000" font-family="sans-serif" font-size="14" lengthAdjust="spacing" textLength="4" x="142" y="244.182">&#160;</text><text fill="#000000" font-family="sans-serif" font-size="14" lengthAdjust="spacing" textLength="4" x="142" y="260.4789">&#160;</text></g><!--entity fbb48372cb08b59eb2f2e99330e6776f--><g id="elem_fbb48372cb08b59eb2f2e99330e6776f"><rect fill="#F1F1F1" height="78.8906" rx="2.5" ry="2.5" style="stroke:#181818;stroke-width:0.5;" width="78" x="131" y="333.78"/><rect fill="#F1F1F1" height="10" style="stroke:#181818;stroke-width:0.5;" width="15" x="189" y="338.78"/><rect fill="#F1F1F1" height="2" style="stroke:#181818;stroke-width:0.5;" width="4" x="187" y="340.78"/><rect fill="#F1F1F1" height="2" style="stroke:#181818;stroke-width:0.5;" width="4" x="187" y="344.78"/><text fill="#000000" font-family="sans-serif" font-size="14" font-weight="bold" lengthAdjust="spacing" textLength="38" x="146" y="366.7751">apps</text><text fill="#000000" font-family="sans-serif" font-size="14" lengthAdjust="spacing" textLength="4" x="146" y="383.072">&#160;</text><text fill="#000000" font-family="sans-serif" font-size="14" lengthAdjust="spacing" textLength="4" x="146" y="399.3689">&#160;</text></g><!--entity 5db344c1f08b5e3fd3310c91938a7e24--><g id="elem_5db344c1f08b5e3fd3310c91938a7e24"><rect fill="#F1F1F1" height="78.8906" rx="2.5" ry="2.5" style="stroke:#181818;stroke-width:0.5;" width="97" x="352.5" y="333.78"/><rect fill="#F1F1F1" height="10" style="stroke:#181818;stroke-width:0.5;" width="15" x="429.5" y="338.78"/><rect fill="#F1F1F1" height="2" style="stroke:#181818;stroke-width:0.5;" width="4" x="427.5" y="340.78"/><rect fill="#F1F1F1" height="2" style="stroke:#181818;stroke-width:0.5;" width="4" x="427.5" y="344.78"/><text fill="#000000" font-family="sans-serif" font-size="14" font-weight="bold" lengthAdjust="spacing" textLength="57" x="367.5" y="366.7751">models</text><text fill="#000000" font-family="sans-serif" font-size="14" lengthAdjust="spacing" textLength="4" x="367.5" y="383.072">&#160;</text><text fill="#000000" font-family="sans-serif" font-size="14" lengthAdjust="spacing" textLength="4" x="367.5" y="399.3689">&#160;</text></g><!--entity 57dbf26352fa970a38fb99171ea1dd7a--><g id="elem_57dbf26352fa970a38fb99171ea1dd7a"><rect fill="#F1F1F1" height="78.8906" rx="2.5" ry="2.5" style="stroke:#181818;stroke-width:0.5;" width="87" x="241.5" y="194.89"/><rect fill="#F1F1F1" height="10" style="stroke:#181818;stroke-width:0.5;" width="15" x="308.5" y="199.89"/><rect fill="#F1F1F1" height="2" style="stroke:#181818;stroke-width:0.5;" width="4" x="306.5" y="201.89"/><rect fill="#F1F1F1" height="2" style="stroke:#181818;stroke-width:0.5;" width="4" x="306.5" y="205.89"/><text fill="#000000" font-family="sans-serif" font-size="14" font-weight="bold" lengthAdjust="spacing" textLength="47" x="256.5" y="227.8851">admin</text><text fill="#000000" font-family="sans-serif" font-size="14" lengthAdjust="spacing" textLength="4" x="256.5" y="244.182">&#160;</text><text fill="#000000" font-family="sans-serif" font-size="14" lengthAdjust="spacing" textLength="4" x="256.5" y="260.4789">&#160;</text></g><!--entity 12a49e2ca2e36ec9a2ce89f3b8d10e7b--><g id="elem_12a49e2ca2e36ec9a2ce89f3b8d10e7b"><rect fill="#F1F1F1" height="78.8906" rx="2.5" ry="2.5" style="stroke:#181818;stroke-width:0.5;" width="70" x="371" y="41"/><rect fill="#F1F1F1" height="10" style="stroke:#181818;stroke-width:0.5;" width="15" x="421" y="46"/><rect fill="#F1F1F1" height="2" style="stroke:#181818;stroke-width:0.5;" width="4" x="419" y="48"/><rect fill="#F1F1F1" height="2" style="stroke:#181818;stroke-width:0.5;" width="4" x="419" y="52"/><text fill="#000000" font-family="sans-serif" font-size="14" font-weight="bold" lengthAdjust="spacing" textLength="30" x="386" y="73.9951">urls</text><text fill="#000000" font-family="sans-serif" font-size="14" lengthAdjust="spacing" textLength="4" x="386" y="90.292">&#160;</text><text fill="#000000" font-family="sans-serif" font-size="14" lengthAdjust="spacing" textLength="4" x="386" y="106.5889">&#160;</text></g><!--entity dfd611083d2964a23be38bbc74ccb553--><g id="elem_dfd611083d2964a23be38bbc74ccb553"><rect fill="#F1F1F1" height="78.8906" rx="2.5" ry="2.5" style="stroke:#181818;stroke-width:0.5;" width="70" x="1266" y="194.89"/><rect fill="#F1F1F1" height="10" style="stroke:#181818;stroke-width:0.5;" width="15" x="1316" y="199.89"/><rect fill="#F1F1F1" height="2" style="stroke:#181818;stroke-width:0.5;" width="4" x="1314" y="201.89"/><rect fill="#F1F1F1" height="2" style="stroke:#181818;stroke-width:0.5;" width="4" x="1314" y="205.89"/><text fill="#000000" font-family="sans-serif" font-size="14" font-weight="bold" lengthAdjust="spacing" textLength="30" x="1281" y="227.8851">urls</text><text fill="#000000" font-family="sans-serif" font-size="14" lengthAdjust="spacing" textLength="4" x="1281" y="244.182">&#160;</text><text fill="#000000" font-family="sans-serif" font-size="14" lengthAdjust="spacing" textLength="4" x="1281" y="260.4789">&#160;</text></g><!--entity 2b70b1dae63651c6206de3a1b5b08791--><g id="elem_2b70b1dae63651c6206de3a1b5b08791"><rect fill="#F1F1F1" height="78.8906" rx="2.5" ry="2.5" style="stroke:#181818;stroke-width:0.5;" width="86" x="1145" y="194.89"/><rect fill="#F1F1F1" height="10" style="stroke:#181818;stroke-width:0.5;" width="15" x="1211" y="199.89"/><rect fill="#F1F1F1" height="2" style="stroke:#181818;stroke-width:0.5;" width="4" x="1209" y="201.89"/><rect fill="#F1F1F1" height="2" style="stroke:#181818;stroke-width:0.5;" width="4" x="1209" y="205.89"/><text fill="#000000" font-family="sans-serif" font-size="14" font-weight="bold" lengthAdjust="spacing" textLength="46" x="1160" y="227.8851">views</text><text fill="#000000" font-family="sans-serif" font-size="14" lengthAdjust="spacing" textLength="4" x="1160" y="244.182">&#160;</text><text fill="#000000" font-family="sans-serif" font-size="14" lengthAdjust="spacing" textLength="4" x="1160" y="260.4789">&#160;</text></g><!--entity 03bd868762cff878f4b49328ea36a7bb--><g id="elem_03bd868762cff878f4b49328ea36a7bb"><rect fill="#F1F1F1" height="78.8906" rx="2.5" ry="2.5" style="stroke:#181818;stroke-width:0.5;" width="80" x="1371" y="194.89"/><rect fill="#F1F1F1" height="10" style="stroke:#181818;stroke-width:0.5;" width="15" x="1431" y="199.89"/><rect fill="#F1F1F1" height="2" style="stroke:#181818;stroke-width:0.5;" width="4" x="1429" y="201.89"/><rect fill="#F1F1F1" height="2" style="stroke:#181818;stroke-width:0.5;" width="4" x="1429" y="205.89"/><text fill="#000000" font-family="sans-serif" font-size="14" font-weight="bold" lengthAdjust="spacing" textLength="40" x="1386" y="227.8851">tests</text><text fill="#000000" font-family="sans-serif" font-size="14" lengthAdjust="spacing" textLength="4" x="1386" y="244.182">&#160;</text><text fill="#000000" font-family="sans-serif" font-size="14" lengthAdjust="spacing" textLength="4" x="1386" y="260.4789">&#160;</text></g><!--entity 2cffc140f16d6e801f3f3d0a58c3ccd1--><g id="elem_2cffc140f16d6e801f3f3d0a58c3ccd1"><rect fill="#F1F1F1" height="78.8906" rx="2.5" ry="2.5" style="stroke:#181818;stroke-width:0.5;" width="78" x="1486" y="194.89"/><rect fill="#F1F1F1" height="10" style="stroke:#181818;stroke-width:0.5;" width="15" x="1544" y="199.89"/><rect fill="#F1F1F1" height="2" style="stroke:#181818;stroke-width:0.5;" width="4" x="1542" y="201.89"/><rect fill="#F1F1F1" height="2" style="stroke:#181818;stroke-width:0.5;" width="4" x="1542" y="205.89"/><text fill="#000000" font-family="sans-serif" font-size="14" font-weight="bold" lengthAdjust="spacing" textLength="38" x="1501" y="227.8851">apps</text><text fill="#000000" font-family="sans-serif" font-size="14" lengthAdjust="spacing" textLength="4" x="1501" y="244.182">&#160;</text><text fill="#000000" font-family="sans-serif" font-size="14" lengthAdjust="spacing" textLength="4" x="1501" y="260.4789">&#160;</text></g><!--entity 686a9aa9f82f45eb75a7aaebe301d97b--><g id="elem_686a9aa9f82f45eb75a7aaebe301d97b"><rect fill="#F1F1F1" height="78.8906" rx="2.5" ry="2.5" style="stroke:#181818;stroke-width:0.5;" width="97" x="1252.5" y="333.78"/><rect fill="#F1F1F1" height="10" style="stroke:#181818;stroke-width:0.5;" width="15" x="1329.5" y="338.78"/><rect fill="#F1F1F1" height="2" style="stroke:#181818;stroke-width:0.5;" width="4" x="1327.5" y="340.78"/><rect fill="#F1F1F1" height="2" style="stroke:#181818;stroke-width:0.5;" width="4" x="1327.5" y="344.78"/><text fill="#000000" font-family="sans-serif" font-size="14" font-weight="bold" lengthAdjust="spacing" textLength="57" x="1267.5" y="366.7751">models</text><text fill="#000000" font-family="sans-serif" font-size="14" lengthAdjust="spacing" textLength="4" x="1267.5" y="383.072">&#160;</text><text fill="#000000" font-family="sans-serif" font-size="14" lengthAdjust="spacing" textLength="4" x="1267.5" y="399.3689">&#160;</text></g><!--entity c60fb44d6175f3d4b2313bac73f6afa1--><g id="elem_c60fb44d6175f3d4b2313bac73f6afa1"><rect fill="#F1F1F1" height="78.8906" rx="2.5" ry="2.5" style="stroke:#181818;stroke-width:0.5;" width="87" x="1384.5" y="333.78"/><rect fill="#F1F1F1" height="10" style="stroke:#181818;stroke-width:0.5;" width="15" x="1451.5" y="338.78"/><rect fill="#F1F1F1" height="2" style="stroke:#181818;stroke-width:0.5;" width="4" x="1449.5" y="340.78"/><rect fill="#F1F1F1" height="2" style="stroke:#181818;stroke-width:0.5;" width="4" x="1449.5" y="344.78"/><text fill="#000000" font-family="sans-serif" font-size="14" font-weight="bold" lengthAdjust="spacing" textLength="47" x="1399.5" y="366.7751">admin</text><text fill="#000000" font-family="sans-serif" font-size="14" lengthAdjust="spacing" textLength="4" x="1399.5" y="383.072">&#160;</text><text fill="#000000" font-family="sans-serif" font-size="14" lengthAdjust="spacing" textLength="4" x="1399.5" y="399.3689">&#160;</text></g><!--entity 7221e0db99c4dc07f0de2c2d31374046--><g id="elem_7221e0db99c4dc07f0de2c2d31374046"><rect fill="#F1F1F1" height="78.8906" rx="2.5" ry="2.5" style="stroke:#181818;stroke-width:0.5;" width="86" x="505" y="194.89"/><rect fill="#F1F1F1" height="10" style="stroke:#181818;stroke-width:0.5;" width="15" x="571" y="199.89"/><rect fill="#F1F1F1" height="2" style="stroke:#181818;stroke-width:0.5;" width="4" x="569" y="201.89"/><rect fill="#F1F1F1" height="2" style="stroke:#181818;stroke-width:0.5;" width="4" x="569" y="205.89"/><text fill="#000000" font-family="sans-serif" font-size="14" font-weight="bold" lengthAdjust="spacing" textLength="46" x="520" y="227.8851">forms</text><text fill="#000000" font-family="sans-serif" font-size="14" lengthAdjust="spacing" textLength="4" x="520" y="244.182">&#160;</text><text fill="#000000" font-family="sans-serif" font-size="14" lengthAdjust="spacing" textLength="4" x="520" y="260.4789">&#160;</text></g><!--entity 7de8ac5e9f6ae225dfd985821050f830--><g id="elem_7de8ac5e9f6ae225dfd985821050f830"><rect fill="#F1F1F1" height="78.8906" rx="2.5" ry="2.5" style="stroke:#181818;stroke-width:0.5;" width="70" x="626" y="194.89"/><rect fill="#F1F1F1" height="10" style="stroke:#181818;stroke-width:0.5;" width="15" x="676" y="199.89"/><rect fill="#F1F1F1" height="2" style="stroke:#181818;stroke-width:0.5;" width="4" x="674" y="201.89"/><rect fill="#F1F1F1" height="2" style="stroke:#181818;stroke-width:0.5;" width="4" x="674" y="205.89"/><text fill="#000000" font-family="sans-serif" font-size="14" font-weight="bold" lengthAdjust="spacing" textLength="30" x="641" y="227.8851">urls</text><text fill="#000000" font-family="sans-serif" font-size="14" lengthAdjust="spacing" textLength="4" x="641" y="244.182">&#160;</text><text fill="#000000" font-family="sans-serif" font-size="14" lengthAdjust="spacing" textLength="4" x="641" y="260.4789">&#160;</text></g><!--entity e8e725cc54e06839ba48db159d17370e--><g id="elem_e8e725cc54e06839ba48db159d17370e"><rect fill="#F1F1F1" height="78.8906" rx="2.5" ry="2.5" style="stroke:#181818;stroke-width:0.5;" width="117" x="730.5" y="194.89"/><rect fill="#F1F1F1" height="10" style="stroke:#181818;stroke-width:0.5;" width="15" x="827.5" y="199.89"/><rect fill="#F1F1F1" height="2" style="stroke:#181818;stroke-width:0.5;" width="4" x="825.5" y="201.89"/><rect fill="#F1F1F1" height="2" style="stroke:#181818;stroke-width:0.5;" width="4" x="825.5" y="205.89"/><text fill="#000000" font-family="sans-serif" font-size="14" font-weight="bold" lengthAdjust="spacing" textLength="77" x="745.5" y="227.8851">validators</text><text fill="#000000" font-family="sans-serif" font-size="14" lengthAdjust="spacing" textLength="4" x="745.5" y="244.182">&#160;</text><text fill="#000000" font-family="sans-serif" font-size="14" lengthAdjust="spacing" textLength="4" x="745.5" y="260.4789">&#160;</text></g><!--entity 3311a240096d95026a90cde8534b9162--><g id="elem_3311a240096d95026a90cde8534b9162"><rect fill="#F1F1F1" height="78.8906" rx="2.5" ry="2.5" style="stroke:#181818;stroke-width:0.5;" width="86" x="882" y="194.89"/><rect fill="#F1F1F1" height="10" style="stroke:#181818;stroke-width:0.5;" width="15" x="948" y="199.89"/><rect fill="#F1F1F1" height="2" style="stroke:#181818;stroke-width:0.5;" width="4" x="946" y="201.89"/><rect fill="#F1F1F1" height="2" style="stroke:#181818;stroke-width:0.5;" width="4" x="946" y="205.89"/><text fill="#000000" font-family="sans-serif" font-size="14" font-weight="bold" lengthAdjust="spacing" textLength="46" x="897" y="227.8851">views</text><text fill="#000000" font-family="sans-serif" font-size="14" lengthAdjust="spacing" textLength="4" x="897" y="244.182">&#160;</text><text fill="#000000" font-family="sans-serif" font-size="14" lengthAdjust="spacing" textLength="4" x="897" y="260.4789">&#160;</text></g><!--entity 54beddf4aa73de18e697de3ad1418084--><g id="elem_54beddf4aa73de18e697de3ad1418084"><rect fill="#F1F1F1" height="78.8906" rx="2.5" ry="2.5" style="stroke:#181818;stroke-width:0.5;" width="80" x="508" y="333.78"/><rect fill="#F1F1F1" height="10" style="stroke:#181818;stroke-width:0.5;" width="15" x="568" y="338.78"/><rect fill="#F1F1F1" height="2" style="stroke:#181818;stroke-width:0.5;" width="4" x="566" y="340.78"/><rect fill="#F1F1F1" height="2" style="stroke:#181818;stroke-width:0.5;" width="4" x="566" y="344.78"/><text fill="#000000" font-family="sans-serif" font-size="14" font-weight="bold" lengthAdjust="spacing" textLength="40" x="523" y="366.7751">tests</text><text fill="#000000" font-family="sans-serif" font-size="14" lengthAdjust="spacing" textLength="4" x="523" y="383.072">&#160;</text><text fill="#000000" font-family="sans-serif" font-size="14" lengthAdjust="spacing" textLength="4" x="523" y="399.3689">&#160;</text></g><!--entity 11476347c15719ff6b197e1a58299278--><g id="elem_11476347c15719ff6b197e1a58299278"><rect fill="#F1F1F1" height="78.8906" rx="2.5" ry="2.5" style="stroke:#181818;stroke-width:0.5;" width="78" x="623" y="333.78"/><rect fill="#F1F1F1" height="10" style="stroke:#181818;stroke-width:0.5;" width="15" x="681" y="338.78"/><rect fill="#F1F1F1" height="2" style="stroke:#181818;stroke-width:0.5;" width="4" x="679" y="340.78"/><rect fill="#F1F1F1" height="2" style="stroke:#181818;stroke-width:0.5;" width="4" x="679" y="344.78"/><text fill="#000000" font-family="sans-serif" font-size="14" font-weight="bold" lengthAdjust="spacing" textLength="38" x="638" y="366.7751">apps</text><text fill="#000000" font-family="sans-serif" font-size="14" lengthAdjust="spacing" textLength="4" x="638" y="383.072">&#160;</text><text fill="#000000" font-family="sans-serif" font-size="14" lengthAdjust="spacing" textLength="4" x="638" y="399.3689">&#160;</text></g><!--entity d72cbfd406bf0c3aa9db2a39007697a8--><g id="elem_d72cbfd406bf0c3aa9db2a39007697a8"><rect fill="#F1F1F1" height="78.8906" rx="2.5" ry="2.5" style="stroke:#181818;stroke-width:0.5;" width="97" x="934.5" y="333.78"/><rect fill="#F1F1F1" height="10" style="stroke:#181818;stroke-width:0.5;" width="15" x="1011.5" y="338.78"/><rect fill="#F1F1F1" height="2" style="stroke:#181818;stroke-width:0.5;" width="4" x="1009.5" y="340.78"/><rect fill="#F1F1F1" height="2" style="stroke:#181818;stroke-width:0.5;" width="4" x="1009.5" y="344.78"/><text fill="#000000" font-family="sans-serif" font-size="14" font-weight="bold" lengthAdjust="spacing" textLength="57" x="949.5" y="366.7751">models</text><text fill="#000000" font-family="sans-serif" font-size="14" lengthAdjust="spacing" textLength="4" x="949.5" y="383.072">&#160;</text><text fill="#000000" font-family="sans-serif" font-size="14" lengthAdjust="spacing" textLength="4" x="949.5" y="399.3689">&#160;</text></g><!--entity a471340c4da15aa192bca79353e32b85--><g id="elem_a471340c4da15aa192bca79353e32b85"><rect fill="#F1F1F1" height="78.8906" rx="2.5" ry="2.5" style="stroke:#181818;stroke-width:0.5;" width="87" x="1002.5" y="194.89"/><rect fill="#F1F1F1" height="10" style="stroke:#181818;stroke-width:0.5;" width="15" x="1069.5" y="199.89"/><rect fill="#F1F1F1" height="2" style="stroke:#181818;stroke-width:0.5;" width="4" x="1067.5" y="201.89"/><rect fill="#F1F1F1" height="2" style="stroke:#181818;stroke-width:0.5;" width="4" x="1067.5" y="205.89"/><text fill="#000000" font-family="sans-serif" font-size="14" font-weight="bold" lengthAdjust="spacing" textLength="47" x="1017.5" y="227.8851">admin</text><text fill="#000000" font-family="sans-serif" font-size="14" lengthAdjust="spacing" textLength="4" x="1017.5" y="244.182">&#160;</text><text fill="#000000" font-family="sans-serif" font-size="14" lengthAdjust="spacing" textLength="4" x="1017.5" y="260.4789">&#160;</text></g><!--link 276e80bcb24b0503af29b6d9b82677ff to 5db344c1f08b5e3fd3310c91938a7e24--><g id="link_276e80bcb24b0503af29b6d9b82677ff_5db344c1f08b5e3fd3310c91938a7e24"><path codeLine="120" d="M404.58,274.19 C403.9,292.85 403.3091,309.134 402.6291,327.744 " fill="none" id="276e80bcb24b0503af29b6d9b82677ff-to-5db344c1f08b5e3fd3310c91938a7e24" style="stroke:#181818;stroke-width:1.0;"/><polygon fill="#181818" points="402.41,333.74,406.736,324.8921,402.5926,328.7433,398.7413,324.5999,402.41,333.74" style="stroke:#181818;stroke-width:1.0;"/></g><!--link 276e80bcb24b0503af29b6d9b82677ff to d72cbfd406bf0c3aa9db2a39007697a8--><g id="link_276e80bcb24b0503af29b6d9b82677ff_d72cbfd406bf0c3aa9db2a39007697a8"><path codeLine="121" d="M449.15,257.68 C461.75,263.55 475.71,269.45 489,273.78 C647.8,325.57 838.679,354.1145 928.389,365.6545 " fill="none" id="276e80bcb24b0503af29b6d9b82677ff-to-d72cbfd406bf0c3aa9db2a39007697a8" style="stroke:#181818;stroke-width:1.0;"/><polygon fill="#181818" points="934.34,366.42,925.9239,361.3044,929.3809,365.7821,924.9032,369.239,934.34,366.42" style="stroke:#181818;stroke-width:1.0;"/></g><!--link 5db344c1f08b5e3fd3310c91938a7e24 to c70a96ecb540ee01b91dd60f493aa35d--><g id="link_5db344c1f08b5e3fd3310c91938a7e24_c70a96ecb540ee01b91dd60f493aa35d"><path codeLine="122" d="M397.88,413.09 C396.38,431.74 395.072,448.0394 393.572,466.6494 " fill="none" id="5db344c1f08b5e3fd3310c91938a7e24-to-c70a96ecb540ee01b91dd60f493aa35d" style="stroke:#181818;stroke-width:1.0;"/><polygon fill="#181818" points="393.09,472.63,397.8001,463.9805,393.4917,467.6462,389.826,463.3377,393.09,472.63" style="stroke:#181818;stroke-width:1.0;"/></g><!--link 57dbf26352fa970a38fb99171ea1dd7a to 5db344c1f08b5e3fd3310c91938a7e24--><g id="link_57dbf26352fa970a38fb99171ea1dd7a_5db344c1f08b5e3fd3310c91938a7e24"><path codeLine="123" d="M317.93,274.19 C333.74,292.85 348.741,310.5525 364.511,329.1625 " fill="none" id="57dbf26352fa970a38fb99171ea1dd7a-to-5db344c1f08b5e3fd3310c91938a7e24" style="stroke:#181818;stroke-width:1.0;"/><polygon fill="#181818" points="368.39,333.74,365.6232,324.2878,365.1575,329.9254,359.5199,329.4597,368.39,333.74" style="stroke:#181818;stroke-width:1.0;"/></g><!--link 12a49e2ca2e36ec9a2ce89f3b8d10e7b to 276e80bcb24b0503af29b6d9b82677ff--><g id="link_12a49e2ca2e36ec9a2ce89f3b8d10e7b_276e80bcb24b0503af29b6d9b82677ff"><path codeLine="124" d="M406,120.16 C406,142.93 406,165.62 406,188.42 " fill="none" id="12a49e2ca2e36ec9a2ce89f3b8d10e7b-to-276e80bcb24b0503af29b6d9b82677ff" style="stroke:#181818;stroke-width:1.0;"/><polygon fill="#181818" points="406,194.42,410,185.42,406,189.42,402,185.42,406,194.42" style="stroke:#181818;stroke-width:1.0;"/></g><!--link 2b70b1dae63651c6206de3a1b5b08791 to 5db344c1f08b5e3fd3310c91938a7e24--><g id="link_2b70b1dae63651c6206de3a1b5b08791_5db344c1f08b5e3fd3310c91938a7e24"><path codeLine="125" d="M1144.67,258.74 C1132.19,264.55 1118.33,270.15 1105,273.78 C839.56,345.94 755.21,264.53 489,333.78 C475.93,337.18 467.8312,339.908 455.3312,345.288 " fill="none" id="2b70b1dae63651c6206de3a1b5b08791-to-5db344c1f08b5e3fd3310c91938a7e24" style="stroke:#181818;stroke-width:1.0;"/><polygon fill="#181818" points="449.82,347.66,459.6682,347.7761,454.4127,345.6833,456.5055,340.4278,449.82,347.66" style="stroke:#181818;stroke-width:1.0;"/></g><!--link 2b70b1dae63651c6206de3a1b5b08791 to d72cbfd406bf0c3aa9db2a39007697a8--><g id="link_2b70b1dae63651c6206de3a1b5b08791_d72cbfd406bf0c3aa9db2a39007697a8"><path codeLine="126" d="M1144.52,264.36 C1111.5,286.42 1071.0594,313.4174 1036.7894,336.3074 " fill="none" id="2b70b1dae63651c6206de3a1b5b08791-to-d72cbfd406bf0c3aa9db2a39007697a8" style="stroke:#181818;stroke-width:1.0;"/><polygon fill="#181818" points="1031.8,339.64,1041.5058,337.9674,1035.9578,336.8629,1037.0624,331.3149,1031.8,339.64" style="stroke:#181818;stroke-width:1.0;"/></g><!--link 3311a240096d95026a90cde8534b9162 to d72cbfd406bf0c3aa9db2a39007697a8--><g id="link_3311a240096d95026a90cde8534b9162_d72cbfd406bf0c3aa9db2a39007697a8"><path codeLine="127" d="M941.47,274.19 C949.37,292.85 956.4705,309.6049 964.3505,328.2149 " fill="none" id="3311a240096d95026a90cde8534b9162-to-d72cbfd406bf0c3aa9db2a39007697a8" style="stroke:#181818;stroke-width:1.0;"/><polygon fill="#181818" points="966.69,333.74,966.8642,323.8927,964.7404,329.1357,959.4974,327.012,966.69,333.74" style="stroke:#181818;stroke-width:1.0;"/></g><!--link 3311a240096d95026a90cde8534b9162 to 5db344c1f08b5e3fd3310c91938a7e24--><g id="link_3311a240096d95026a90cde8534b9162_5db344c1f08b5e3fd3310c91938a7e24"><path codeLine="128" d="M881.53,266.04 C876.13,268.99 870.55,271.66 865,273.78 C706.86,334.03 651.4,286.19 489,333.78 C476.04,337.58 467.9789,340.4427 455.4889,345.8327 " fill="none" id="3311a240096d95026a90cde8534b9162-to-5db344c1f08b5e3fd3310c91938a7e24" style="stroke:#181818;stroke-width:1.0;"/><polygon fill="#181818" points="449.98,348.21,459.8283,348.3166,454.5708,346.2289,456.6585,340.9714,449.98,348.21" style="stroke:#181818;stroke-width:1.0;"/></g><!--link a471340c4da15aa192bca79353e32b85 to d72cbfd406bf0c3aa9db2a39007697a8--><g id="link_a471340c4da15aa192bca79353e32b85_d72cbfd406bf0c3aa9db2a39007697a8"><path codeLine="129" d="M1028.12,274.19 C1019.53,292.85 1011.7773,309.679 1003.2173,328.289 " fill="none" id="a471340c4da15aa192bca79353e32b85-to-d72cbfd406bf0c3aa9db2a39007697a8" style="stroke:#181818;stroke-width:1.0;"/><polygon fill="#181818" points="1000.71,333.74,1008.1049,327.235,1002.7994,329.1975,1000.8369,323.892,1000.71,333.74" style="stroke:#181818;stroke-width:1.0;"/></g><!--SRC=[hLNDRfmt3BplKonoD11K_94eNVeYHL6G8XKOzUuQjjCKAFhkvUu6Q5B7-_dG1nWEDJCSwSF3wSlX_i_xuwVTeyxVzLFiF-ZZuqyVzlgyxz9ig4zQH32Arb88AbKQdLQPQ__NRfuEZwTZ75_sFOWAKgkjh82sQF52ybcyrLfnxd_PtTrzVdfulhlRxNQ_VeESKdIqc5QvH1Im0UuvXGUfKlKByWzzk7TzEJszngEqwCMc8LkfXNJXiER3EZQHjQxu-_Zo6ahKLnjZi01vgLEYAImHRSresXNw4iylhw7BZ3i9JYlTwWZ3XJ56YX39sgxGbF8riheHyuHr1WOjJtNB732egmJo1NauUVn0gofk2njLN3fIjzpVnW21q1HDzChgX_lZL-ZV__hw58Vdgx6Sp2eSgHE5YHPPpPcZTv0rs_V60YgFmAaOb2uDnHbzBBBkK4BilyP-mtXPvBT7FSR3bLYxeKaruJeC9OM6d1UIWwRJWk-8VNa3A9qSHsD5ig1kDeLdPgNIsubAZcBW6Ytp2BDXQHwaO3NDaW4t4b78lBTCFiwrklJ5bZd47afDnUn68iw82LmMD3yd4l86CbLQ-wGv7TvEHEjDX-fO7HVNTAIgg4Q-ju2FhnA_aOYPbsBCAPNKf6D30ZATGglfKhYL29tpzFduSlN6aJEvIqkAfa5rSgjppk4y6pVfttaZY135CtkJyyPb5S-8e2UtSE5sOLsdfyFhXSMZwwmnShz0h6dpwBKZvEskJkLjMwE7OEvKEKhhD4ovkq4T3a9IOgieyiv0aKiPsGwrO8fUPcvJYRDp6jw8HMKBzyMgGXxGemqvHyg1ePVEDs81mDA8PK8L66irWo416GiS0rFNDsFXvtPPpgLPrcsMuN13fL6A9BtsMx7GSwLnINSKgkQPeKsLaUKTXDRh3sAnsQCV_UFFc-trpZ5RRzjjjkHbpDRViTiipFSzQhC4BsEsdhxRBAPtIlokCPiIRzx3_pbcyr6RYNtNDly0]--></g></svg>